<svg width="59" height="46" viewBox="0 0 59 46" fill="none" xmlns="http://www.w3.org/2000/svg">
<path d="M5.89475 41.2933C2.54725 37.7378 0.75 33.7501 0.75 27.2858C0.75 15.9108 8.73525 5.71555 20.3475 0.674805L23.2498 5.15331C12.411 11.0163 10.292 18.6246 9.447 23.4216C11.1923 22.5181 13.477 22.2028 15.7163 22.4108C21.5793 22.9536 26.2008 27.7668 26.2008 33.7501C26.2008 36.7669 25.0023 39.6602 22.8691 41.7934C20.7359 43.9266 17.8426 45.1251 14.8257 45.1251C11.3385 45.1251 8.004 43.5326 5.89475 41.2933ZM38.3948 41.2933C35.0472 37.7378 33.25 33.7501 33.25 27.2858C33.25 15.9108 41.2353 5.71555 52.8475 0.674805L55.7498 5.15331C44.911 11.0163 42.792 18.6246 41.947 23.4216C43.6922 22.5181 45.977 22.2028 48.2162 22.4108C54.0793 22.9536 58.7007 27.7668 58.7007 33.7501C58.7007 36.7669 57.5023 39.6602 55.3691 41.7934C53.2359 43.9266 50.3426 45.1251 47.3257 45.1251C43.8385 45.1251 40.504 43.5326 38.3948 41.2933Z" fill="#12372A"/>
</svg>
