<svg width="79" height="79" viewBox="0 0 79 79" fill="none" xmlns="http://www.w3.org/2000/svg">
<g clip-path="url(#clip0_187_3566)">
<path d="M63.9143 21.985C67.3047 25.5861 69.125 29.625 69.125 36.1721C69.125 47.6929 61.0374 58.0189 49.2763 63.1243L46.3368 58.5883C57.3145 52.6502 59.4607 44.9444 60.3165 40.0859C58.5489 41.001 56.2348 41.3203 53.9669 41.1096C48.0287 40.5599 43.348 35.6849 43.348 29.625C43.348 26.5695 44.5618 23.6391 46.7223 21.4785C48.8829 19.3179 51.8133 18.1041 54.8688 18.1041C58.4008 18.1041 61.778 19.7171 63.9143 21.985ZM30.9976 21.985C34.388 25.5861 36.2083 29.625 36.2083 36.1721C36.2083 47.6929 28.1207 58.0189 16.3596 63.1243L13.4201 58.5883C24.3978 52.6502 26.544 44.9444 27.3998 40.0859C25.6322 41.001 23.3182 41.3203 21.0502 41.1096C15.112 40.5599 10.4313 35.6849 10.4313 29.625C10.4313 26.5695 11.6451 23.6391 13.8057 21.4785C15.9662 19.3179 18.8966 18.1041 21.9521 18.1041C25.4841 18.1041 28.8613 19.7171 30.9976 21.985Z" fill="#12372A"/>
</g>
<defs>
<clipPath id="clip0_187_3566">
<rect width="79" height="79" fill="white" transform="matrix(-1 0 0 -1 79 79)"/>
</clipPath>
</defs>
</svg>
